<?xml version="1.0" encoding="UTF-8"?>
<svg id="OBJECTS" xmlns="http://www.w3.org/2000/svg" version="1.1" viewBox="0 0 800 800">
  <!-- Generator: Adobe Illustrator 29.6.1, SVG Export Plug-In . SVG Version: 2.1.1 Build 9)  -->
  <defs>
    <style>
      .st0 {
        fill: #f7e941;
      }

      .st1 {
        fill: #edad1d;
      }

      .st2 {
        fill: #f9c83e;
      }

      .st3 {
        fill: #ff3f9f;
      }
    </style>
  </defs>
  <path class="st0" d="M370.29,92.9L35.49,672.8c-9.9,17.15-3.09,37.52,12.07,46.63,5.05,3.04,11.04,4.82,17.64,4.82h669.61c14.41,0,25.88-8.52,31.17-19.97,4.4-9.53,4.54-21.1-1.46-31.48L429.71,92.9c-6.56-11.37-18.02-17.09-29.51-17.15-11.62-.07-23.27,5.65-29.91,17.15Z"/>
  <polygon class="st2" points="716.24 679.23 400 131.49 83.76 679.23 716.24 679.23"/>
  <path class="st1" d="M444.17,612.17c0,26.54-18.74,45.27-44.75,45.27s-44.24-18.74-44.24-45.27,18.21-44.76,44.24-44.76,44.75,18.23,44.75,44.76ZM445.21,290.55v93.15l-16.13,143.12h-55.68l-16.13-143.12v-93.15h87.95Z"/>
  <polygon class="st1" points="400 157.22 701.39 679.23 716.24 679.23 400 131.49 83.76 679.23 98.62 679.23 400 157.22"/>
  <path class="st3" d="M734.8,704.96H65.2c-2.84,0-5.43-.7-7.71-2.08-6.22-3.74-9.91-12.41-5.29-20.43L387,102.55c2.75-4.77,7.49-7.5,13-7.5,5.55.03,10.26,2.76,13,7.5l334.8,579.9c2.51,4.34,2.74,9.21.66,13.73-2.56,5.51-7.66,8.78-13.66,8.78ZM400.02,107.91c-1.16,0-1.56.53-1.88,1.07L63.34,688.88c-1.05,1.81.77,2.97.78,2.98.14.09.38.23,1.07.23h669.61c.48,0,1.38,0,1.98-1.32.32-.68.29-1.19-.13-1.9L401.86,108.98c-.29-.51-.71-1.06-1.84-1.07Z"/>
  <path class="st3" d="M444.17,595.29c0,26.54-18.74,45.27-44.75,45.27s-44.24-18.74-44.24-45.27,18.21-44.76,44.24-44.76,44.75,18.23,44.75,44.76ZM445.21,273.68v93.15l-16.13,143.12h-55.68l-16.13-143.12v-93.15h87.95Z"/>
</svg>