<?xml version="1.0" encoding="UTF-8"?>
<svg id="OBJECTS" xmlns="http://www.w3.org/2000/svg" version="1.1" viewBox="0 0 800 800">
  <!-- Generator: Adobe Illustrator 29.6.1, SVG Export Plug-In . SVG Version: 2.1.1 Build 9)  -->
  <defs>
    <style>
      .st0 {
        fill: #f69838;
      }

      .st1 {
        fill: #53565c;
      }

      .st2 {
        fill: #5c5f66;
      }

      .st3 {
        fill: #fcb33b;
      }

      .st4 {
        fill: #c4cad9;
      }

      .st5 {
        fill: #bbc2cd;
      }
    </style>
  </defs>
  <path class="st3" d="M198.39,745.7l-54.7-310.23c-2.55-14.45,6.58-31.22,21-33.95l235.05-41.52,64.58,366.03-234.87,41.41c-14.58,2.57-28.49-7.17-31.06-21.75Z"/>
  <path class="st2" d="M414.44,442.92c-35.2,6.21-58.71,39.78-52.5,74.98,4.97,28.19,27.5,48.87,54.35,52.8l10.53,59.73c1.93,10.96,12.48,18.35,23.45,16.42.04,0,.08-.02.13-.03l-35.95-203.9Z"/>
  <path class="st0" d="M720.98,653.56l-54.7-310.23c-2.55-14.45-17.46-26.98-31.95-24.61l-234.59,41.29,64.58,366.03,234.9-41.42c14.58-2.57,24.32-16.48,21.75-31.07Z"/>
  <path class="st1" d="M414.37,442.93c35.2-6.21,68.81,17.29,75.02,52.5,4.97,28.19-9.13,55.32-33.01,68.21l10.53,59.73c1.93,10.96-5.59,21.53-16.56,23.47-.04,0-35.98-203.9-35.98-203.9Z"/>
  <g>
    <path class="st4" d="M342.53,35.27h0c-111.51,19.66-186.24,126.38-166.57,237.89l21.6,122.5,80.62-14.22-21.6-122.5c-11.79-66.89,33.28-131.26,100.17-143.05h0l-14.22-80.62Z"/>
    <path class="st5" d="M342.53,35.27h0c111.51-19.66,218.23,55.06,237.89,166.57l21.6,122.5-80.62,14.22-21.6-122.5c-11.79-66.89-76.17-111.96-143.05-100.17h0l-14.22-80.62Z"/>
  </g>
</svg>