<?xml version="1.0" encoding="UTF-8"?>
<svg id="Capa_1" xmlns="http://www.w3.org/2000/svg" version="1.1" xmlns:xlink="http://www.w3.org/1999/xlink" viewBox="0 0 1000 220">
  <!-- Generator: Adobe Illustrator 29.6.1, SVG Export Plug-In . SVG Version: 2.1.1 Build 9)  -->
  <defs>
    <style>
      .st0 {
        font-family: Meditative, Meditative;
        font-size: 220px;
      }

      .st1 {
        fill: url(#Degradado_sin_nombre_13);
      }
    </style>
    <linearGradient id="Degradado_sin_nombre_13" data-name="Degradado sin nombre 13" x1="64.21" y1="116.62" x2="938.3" y2="116.62" gradientUnits="userSpaceOnUse">
      <stop offset="0" stop-color="#063434"/>
      <stop offset=".24" stop-color="#0b3b3e"/>
      <stop offset=".51" stop-color="#0d3f43"/>
      <stop offset=".73" stop-color="#0b3d40"/>
      <stop offset=".87" stop-color="#083738"/>
      <stop offset=".98" stop-color="#012c29"/>
      <stop offset="1" stop-color="#002a26"/>
    </linearGradient>
  </defs>
  <text class="st0" transform="translate(56.33 186.24)"><tspan x="0" y="0">EGRESOS</tspan></text>
  <g>
    <path class="st1" d="M133.11,52.71h-12.98c-6.46,0-11.92,2.28-16.39,6.82-4.48,4.55-6.71,10.05-6.71,16.5v49.72c7.33-7.18,15.32-12.76,23.98-16.72,8.65-3.96,15.47-6.16,20.46-6.6l7.48-.66-.22,21.12c-3.52-.73-7.92-1.1-13.2-1.1-15.7,0-28.53,3.96-38.5,11.88v31.46c0,4.4,1.54,8.14,4.62,11.22,3.08,3.08,6.74,4.62,11,4.62h20.02c13.78,0,23.98-10.19,30.58-30.58.29-1.02,1.1-1.39,2.42-1.1,1.32.29,1.98.96,1.98,1.98v34.98h-101.64c-1.03,0-1.62-.4-1.76-1.21-.15-.8.14-1.5.88-2.09,1.9-1.32,2.86-3.88,2.86-7.7V58.64c0-3.96-.96-6.67-2.86-8.14-.74-.44-1.03-.99-.88-1.65.14-.66.66-1.06,1.54-1.21l-.66-.22h102.96v34.98c0,1.03-.66,1.65-1.98,1.87-1.32.22-2.06-.18-2.2-1.21-2.5-7.92-6.24-14.96-11.22-21.12-4.99-6.16-11.52-9.24-19.58-9.24Z"/>
    <path class="st1" d="M308.89,117.6c-2.5,4.7-3.74,10.86-3.74,18.48v7.7c-1.03,2.94-2.97,6.56-5.83,10.89-2.86,4.33-6.75,9.13-11.66,14.41-4.92,5.28-11.22,9.72-18.92,13.31-7.7,3.6-15.88,5.39-24.53,5.39-20.1,0-35.9-6.75-47.41-20.24-11.52-13.49-17.27-30.5-17.27-51.04s5.75-37.32,17.27-50.82c11.51-13.49,27.31-20.24,47.41-20.24,24.78,0,42.53,10.86,53.24,32.56l-25.3,7.7c-2.2-10.85-6.27-19.62-12.21-26.29-5.94-6.67-12.87-10.01-20.79-10.01-2.06,0-4.11.22-6.16.66-5.28,1.03-9.9,4.18-13.86,9.46s-6.79,11.7-8.47,19.25c-1.69,7.56-2.68,15.73-2.97,24.53-.3,8.8.73,17.53,3.08,26.18,2.34,8.66,5.5,16.54,9.46,23.65,3.96,7.12,9.42,12.87,16.39,17.27,6.96,4.4,14.85,6.6,23.65,6.6,4.98,0,9.9-.88,14.74-2.64v-38.5c0-6.89-1.4-12.98-4.18-18.26-.3-.73-.26-1.39.11-1.98.36-.58.91-.88,1.65-.88h34.76c.73,0,1.28.33,1.65.99.36.66.33,1.29-.11,1.87Z"/>
    <path class="st1" d="M440.23,182.72c1.02,0,1.54.81,1.54,2.42.14.88-.15,1.32-.88,1.32h-27.28c-6.31,0-11.59-3.08-15.84-9.24-1.62-2.49-5.91-8.36-12.87-17.6-6.97-9.24-11.84-15.98-14.63-20.24-4.11-6.01-8-9.68-11.66-11-.74-.14-1.73-.33-2.97-.55-1.25-.22-2.02-.33-2.31-.33v47.52c0,3.96.95,6.6,2.86,7.92.73.59.99,1.29.77,2.09-.22.81-.85,1.21-1.87,1.21h-32.78c-.88,0-1.43-.4-1.65-1.21-.22-.8.03-1.5.77-2.09,1.9-1.32,2.86-3.88,2.86-7.7V58.64c0-3.96-.96-6.67-2.86-8.14-.74-.58-1.03-1.24-.88-1.98.14-.73.73-1.1,1.76-1.1h50.82c17.3,0,29.99,3.67,38.06,11,8.06,7.33,12.1,16.43,12.1,27.28,0,11.59-3.19,20.68-9.57,27.28s-14.63,11.15-24.75,13.64c4.98,1.47,8.87,4.18,11.66,8.14.73,1.03,2.67,3.89,5.83,8.58,3.15,4.7,6.08,8.95,8.8,12.76,2.71,3.82,5.72,7.92,9.02,12.32,3.3,4.4,6.16,7.89,8.58,10.45,2.42,2.57,4.21,3.85,5.39,3.85h1.98ZM353.33,58.21v65.78c3.52.88,6.89,1.32,10.12,1.32,9.09,0,16.57-3.3,22.44-9.9,5.86-6.6,8.8-15.84,8.8-27.72,0-9.38-2.31-17.82-6.93-25.3s-12.07-11.22-22.33-11.22h-6.82c-3.52,0-5.28,2.35-5.28,7.04Z"/>
    <path class="st1" d="M518.54,52.71h-12.98c-6.46,0-11.92,2.28-16.39,6.82-4.48,4.55-6.71,10.05-6.71,16.5v49.72c7.33-7.18,15.32-12.76,23.98-16.72,8.65-3.96,15.47-6.16,20.46-6.6l7.48-.66-.22,21.12c-3.52-.73-7.92-1.1-13.2-1.1-15.7,0-28.53,3.96-38.5,11.88v31.46c0,4.4,1.54,8.14,4.62,11.22s6.74,4.62,11,4.62h20.02c13.78,0,23.98-10.19,30.58-30.58.29-1.02,1.1-1.39,2.42-1.1,1.32.29,1.98.96,1.98,1.98v34.98h-101.64c-1.03,0-1.62-.4-1.76-1.21-.15-.8.14-1.5.88-2.09,1.9-1.32,2.86-3.88,2.86-7.7V58.64c0-3.96-.96-6.67-2.86-8.14-.74-.44-1.03-.99-.88-1.65.14-.66.66-1.06,1.54-1.21l-.66-.22h102.96v34.98c0,1.03-.66,1.65-1.98,1.87-1.32.22-2.06-.18-2.2-1.21-2.5-7.92-6.24-14.96-11.22-21.12-4.99-6.16-11.52-9.24-19.58-9.24Z"/>
    <path class="st1" d="M628.32,102.64c28.01,16.43,42.02,32.49,42.02,48.18,0,11.15-4.77,20.17-14.3,27.06-9.54,6.9-22.37,10.34-38.5,10.34-12.18,0-23.62-3.66-34.32-11-10.71-7.33-16.06-15.4-16.06-24.2,0-13.34,8.5-20.02,25.52-20.02,1.61,0,2.75.33,3.41.99s.88,1.4.66,2.2c-.22.81-.7,1.43-1.43,1.87-1.91,1.18-3.08,3.52-3.52,7.04-.44,3.52-.04,7.41,1.21,11.66,1.24,4.25,3.08,8.44,5.5,12.54,2.42,4.11,5.83,7.52,10.23,10.23,4.4,2.71,9.24,4.07,14.52,4.07,4.69,0,8.58-1.54,11.66-4.62s4.62-7.48,4.62-13.2c0-3.08-.81-6.12-2.42-9.13-1.62-3-4.22-6.08-7.81-9.24-3.6-3.15-6.9-5.79-9.9-7.92-3.01-2.12-7.15-4.87-12.43-8.25-13.64-8.94-22.52-15.47-26.62-19.58-8.22-7.92-12.32-16.2-12.32-24.86,0-13.05,4.4-23.28,13.2-30.69,8.8-7.4,19.06-11.11,30.8-11.11,13.05,0,24.6,2.97,34.65,8.91,10.04,5.94,15.07,12.51,15.07,19.69,0,5.87-2.17,10.05-6.49,12.54-4.33,2.5-9.28,3.74-14.85,3.74-2.79,0-4.84-.22-6.16-.66-1.47-.44-2.24-1.24-2.31-2.42-.08-1.17.47-2.05,1.65-2.64,2.2-2.2,2.6-5.79,1.21-10.78-1.4-4.98-4.88-10.04-10.45-15.18-5.58-5.13-11.3-7.7-17.16-7.7-2.2,0-4.4.44-6.6,1.32-2.64,1.03-4.66,2.61-6.05,4.73-1.4,2.13-1.95,4.84-1.65,8.14.29,3.3,1.54,6.86,3.74,10.67,2.2,3.81,6.01,8.14,11.44,12.98,5.42,4.84,12.17,9.61,20.24,14.3Z"/>
    <path class="st1" d="M749.1,44.79c19.8,0,37,7.04,51.59,21.12,14.59,14.08,22.18,31.02,22.77,50.82.73,19.8-5.65,36.74-19.14,50.82-13.5,13.94-30.14,20.9-49.94,20.9s-37.18-7-51.7-21.01c-14.52-14-22.15-30.91-22.88-50.71-.74-19.8,5.72-36.74,19.36-50.82,13.34-14.08,29.99-21.12,49.94-21.12ZM778.36,179.21c9.82-4.11,15.65-13.71,17.49-28.82,1.83-15.1-.92-31.31-8.25-48.62-6.16-14.67-14.19-26.54-24.09-35.64-9.9-9.09-19.55-13.64-28.93-13.64-3.52,0-6.53.59-9.02,1.76-9.83,4.11-15.62,13.72-17.38,28.82-1.76,15.11,1.02,31.32,8.36,48.62,6.16,14.67,14.15,26.55,23.98,35.64,9.83,9.1,19.43,13.64,28.82,13.64,3.52,0,6.52-.58,9.02-1.76Z"/>
    <path class="st1" d="M896.28,102.64c28.01,16.43,42.02,32.49,42.02,48.18,0,11.15-4.77,20.17-14.3,27.06-9.54,6.9-22.37,10.34-38.5,10.34-12.18,0-23.62-3.66-34.32-11-10.71-7.33-16.06-15.4-16.06-24.2,0-13.34,8.5-20.02,25.52-20.02,1.61,0,2.75.33,3.41.99s.88,1.4.66,2.2c-.22.81-.7,1.43-1.43,1.87-1.91,1.18-3.08,3.52-3.52,7.04-.44,3.52-.04,7.41,1.21,11.66,1.24,4.25,3.08,8.44,5.5,12.54,2.42,4.11,5.83,7.52,10.23,10.23,4.4,2.71,9.24,4.07,14.52,4.07,4.69,0,8.58-1.54,11.66-4.62s4.62-7.48,4.62-13.2c0-3.08-.81-6.12-2.42-9.13-1.62-3-4.22-6.08-7.81-9.24-3.6-3.15-6.9-5.79-9.9-7.92-3.01-2.12-7.15-4.87-12.43-8.25-13.64-8.94-22.52-15.47-26.62-19.58-8.22-7.92-12.32-16.2-12.32-24.86,0-13.05,4.4-23.28,13.2-30.69,8.8-7.4,19.06-11.11,30.8-11.11,13.05,0,24.6,2.97,34.65,8.91,10.04,5.94,15.07,12.51,15.07,19.69,0,5.87-2.17,10.05-6.49,12.54-4.33,2.5-9.28,3.74-14.85,3.74-2.79,0-4.84-.22-6.16-.66-1.47-.44-2.24-1.24-2.31-2.42-.08-1.17.47-2.05,1.65-2.64,2.2-2.2,2.6-5.79,1.21-10.78-1.4-4.98-4.88-10.04-10.45-15.18-5.58-5.13-11.3-7.7-17.16-7.7-2.2,0-4.4.44-6.6,1.32-2.64,1.03-4.66,2.61-6.05,4.73-1.4,2.13-1.95,4.84-1.65,8.14.29,3.3,1.54,6.86,3.74,10.67,2.2,3.81,6.01,8.14,11.44,12.98,5.42,4.84,12.17,9.61,20.24,14.3Z"/>
  </g>
</svg>